<?xml version="1.0" encoding="utf-8"?>
<!-- Generator: Adobe Illustrator 24.1.1, SVG Export Plug-In . SVG Version: 6.00 Build 0)  -->
<svg version="1.1" id="Layer_1" xmlns="http://www.w3.org/2000/svg" xmlns:xlink="http://www.w3.org/1999/xlink" x="0px" y="0px"
	 width="15px" height="8.9px" viewBox="0 0 15 8.9" style="enable-background:new 0 0 15 8.9;" xml:space="preserve">
<g>
	<g>
		<path d="M0.2,8.1l0.5,0.5c0.2,0.2,0.4,0.2,0.6,0.2c0.2,0,0.4-0.1,0.6-0.2L7.5,3l5.6,5.6c0.2,0.2,0.4,0.2,0.6,0.2s0.4-0.1,0.6-0.2
			l0.5-0.5c0.3-0.3,0.3-0.8,0-1.2L8.1,0.3C7.9,0.1,7.7,0,7.5,0h0C7.3,0,7.1,0.1,6.9,0.3L0.2,7C0.1,7.1,0,7.3,0,7.5
			C0,7.8,0.1,8,0.2,8.1z"/>
	</g>
</g>
</svg>
